<svg width="24" height="24" viewBox="0 0 24 24" fill="none" xmlns="http://www.w3.org/2000/svg">
<g id="Software/window/click">
<path id="Icon" d="M3.73005 22.455L4.18404 21.564H4.18404L3.73005 22.455ZM1.54497 20.27L2.43597 19.816H2.43597L1.54497 20.27ZM20.27 1.54497L19.816 2.43597V2.43597L20.27 1.54497ZM22.455 3.73005L21.564 4.18404V4.18404L22.455 3.73005ZM3.73005 1.54497L4.18404 2.43597L3.73005 1.54497ZM1.54497 3.73005L2.43597 4.18404L1.54497 3.73005ZM22 12C22 12.5523 22.4477 13 23 13C23.5523 13 24 12.5523 24 12H22ZM12 24C12.5523 24 13 23.5523 13 23C13 22.4477 12.5523 22 12 22V24ZM1 7C0.447715 7 0 7.44772 0 8C0 8.55228 0.447715 9 1 9V7ZM23 9C23.5523 9 24 8.55228 24 8C24 7.44772 23.5523 7 23 7V9ZM6 5C6 4.44772 5.55228 4 5 4C4.44772 4 4 4.44772 4 5H6ZM9 5C9 4.44772 8.55228 4 8 4C7.44772 4 7 4.44772 7 5H9ZM12 5C12 4.44772 11.5523 4 11 4C10.4477 4 10 4.44772 10 5H12ZM15.339 15.7612L14.407 16.1237L15.339 15.7612ZM18.0718 22.7866L19.0038 22.424V22.424L18.0718 22.7866ZM22.8042 18.5382L22.3891 19.448L22.8042 18.5382ZM15.7944 15.3394L15.3792 16.2491L15.7944 15.3394ZM18.7056 22.7723L19.6532 23.0918L18.7056 22.7723ZM19.6917 19.8474L18.7441 19.5279L19.6917 19.8474ZM19.9558 19.6242L20.1184 20.6109L19.9558 19.6242ZM22.7185 19.169L22.5559 18.1823L22.7185 19.169ZM12.2966 13.7111C12.6893 14.0994 13.3225 14.0958 13.7108 13.7031C14.0991 13.3104 14.0955 12.6772 13.7028 12.2889L12.2966 13.7111ZM12.3557 10.957C11.963 10.5687 11.3299 10.5723 10.9415 10.965C10.5532 11.3578 10.5568 11.9909 10.9496 12.3792L12.3557 10.957ZM14.9997 11.9978C14.9997 12.5501 15.4474 12.9978 15.9997 12.9978C16.552 12.9978 16.9997 12.5501 16.9997 11.9978H14.9997ZM16.9997 11C16.9997 10.4477 16.552 10 15.9997 10C15.4474 10 14.9997 10.4477 14.9997 11H16.9997ZM12.0203 17C12.5726 17 13.0203 16.5523 13.0203 16C13.0203 15.4477 12.5726 15 12.0203 15V17ZM9.9997 15C9.44741 15 8.9997 15.4477 8.9997 16C8.9997 16.5523 9.44741 17 9.9997 17V15ZM4 5.01C4 5.56228 4.44772 6.01 5 6.01C5.55228 6.01 6 5.56228 6 5.01H4ZM7 5.01C7 5.56228 7.44772 6.01 8 6.01C8.55228 6.01 9 5.56228 9 5.01H7ZM10 5.01C10 5.56228 10.4477 6.01 11 6.01C11.5523 6.01 12 5.56228 12 5.01H10ZM9 2H15V0H9V2ZM2 15V9H0V15H2ZM9 22C7.58337 22 6.58104 21.9992 5.79744 21.9352C5.02552 21.8721 4.55435 21.7527 4.18404 21.564L3.27606 23.346C3.9753 23.7023 4.73898 23.8554 5.63458 23.9286C6.51851 24.0008 7.61637 24 9 24V22ZM0 15C0 16.3836 -0.000777721 17.4815 0.071442 18.3654C0.144616 19.261 0.297677 20.0247 0.653961 20.7239L2.43597 19.816C2.24729 19.4457 2.12787 18.9745 2.0648 18.2026C2.00078 17.419 2 16.4166 2 15H0ZM4.18404 21.564C3.43139 21.1805 2.81947 20.5686 2.43597 19.816L0.653961 20.7239C1.2292 21.8529 2.14708 22.7708 3.27606 23.346L4.18404 21.564ZM15 2C16.4166 2 17.419 2.00078 18.2026 2.0648C18.9745 2.12787 19.4457 2.24729 19.816 2.43597L20.7239 0.653961C20.0247 0.297677 19.261 0.144616 18.3654 0.071442C17.4815 -0.000777721 16.3836 0 15 0V2ZM24 9C24 7.61637 24.0008 6.51851 23.9286 5.63458C23.8554 4.73898 23.7023 3.9753 23.346 3.27606L21.564 4.18404C21.7527 4.55435 21.8721 5.02552 21.9352 5.79744C21.9992 6.58104 22 7.58337 22 9H24ZM19.816 2.43597C20.5686 2.81947 21.1805 3.43139 21.564 4.18404L23.346 3.27606C22.7708 2.14708 21.8529 1.2292 20.7239 0.653961L19.816 2.43597ZM9 0C7.61637 0 6.51851 -0.000777721 5.63458 0.071442C4.73898 0.144616 3.9753 0.297677 3.27606 0.653961L4.18404 2.43597C4.55435 2.24729 5.02552 2.12787 5.79744 2.0648C6.58104 2.00078 7.58337 2 9 2V0ZM2 9C2 7.58337 2.00078 6.58104 2.0648 5.79744C2.12787 5.02552 2.24729 4.55435 2.43597 4.18404L0.653961 3.27606C0.297677 3.9753 0.144616 4.73898 0.071442 5.63458C-0.000777721 6.51851 0 7.61637 0 9H2ZM3.27606 0.653961C2.14708 1.2292 1.2292 2.14708 0.653961 3.27606L2.43597 4.18404C2.81947 3.43139 3.43139 2.81947 4.18404 2.43597L3.27606 0.653961ZM22 9V12H24V9H22ZM12 22H9V24H12V22ZM1 9H23V7H1V9ZM14.407 16.1237L17.1398 23.1491L19.0038 22.424L16.2709 15.3987L14.407 16.1237ZM23.2194 17.6285L16.2096 14.4296L15.3792 16.2491L22.3891 19.448L23.2194 17.6285ZM19.6532 23.0918L20.6393 20.1668L18.7441 19.5279L17.758 22.4529L19.6532 23.0918ZM20.1184 20.6109L22.8811 20.1557L22.5559 18.1823L19.7932 18.6375L20.1184 20.6109ZM20.6393 20.1668C20.5591 20.4047 20.3557 20.5718 20.1184 20.6109L19.7932 18.6375C19.3098 18.7172 18.9032 19.0561 18.7441 19.5279L20.6393 20.1668ZM22.3891 19.448C21.7802 19.1701 21.9208 18.2869 22.5559 18.1823L22.8811 20.1557C24.1702 19.9432 24.4303 18.181 23.2194 17.6285L22.3891 19.448ZM17.1398 23.1491C17.5914 24.31 19.2542 24.2754 19.6532 23.0918L17.758 22.4529C17.9572 21.8619 18.779 21.8462 19.0038 22.424L17.1398 23.1491ZM16.2709 15.3987C16.5002 15.9881 15.8899 16.4821 15.3792 16.2491L16.2096 14.4296C15.1499 13.946 13.9606 14.9763 14.407 16.1237L16.2709 15.3987ZM13.7028 12.2889L12.3557 10.957L10.9496 12.3792L12.2966 13.7111L13.7028 12.2889ZM16.9997 11.9978V11H14.9997V11.9978H16.9997ZM12.0203 15H9.9997V17H12.0203V15ZM4 5V5.01H6V5H4ZM7 5V5.01H9V5H7ZM10 5V5.01H12V5H10Z" fill="white"/>
</g>
</svg>
