<svg width="24" height="24" viewBox="0 0 24 24" fill="none" xmlns="http://www.w3.org/2000/svg">
<g id="Text &#38; Formatting/layout/box/alt" clip-path="url(#clip0_1109_485)">
<path id="Icon" d="M3.73005 22.455L4.18404 21.564L3.73005 22.455ZM1.54497 20.27L2.43597 19.816L1.54497 20.27ZM22.455 20.27L21.564 19.816L22.455 20.27ZM20.27 22.455L19.816 21.564L20.27 22.455ZM20.27 1.54497L19.816 2.43597L20.27 1.54497ZM22.455 3.73005L21.564 4.18404L22.455 3.73005ZM3.73005 1.54497L4.18404 2.43597L3.73005 1.54497ZM1.54497 3.73005L2.43597 4.18404L1.54497 3.73005ZM15 5C14.4477 5 14 5.44772 14 6C14 6.55228 14.4477 7 15 7V5ZM19 7C19.5523 7 20 6.55229 20 6C20 5.44772 19.5523 5 19 5V7ZM15 13C14.4477 13 14 13.4477 14 14C14 14.5523 14.4477 15 15 15V13ZM19 15C19.5523 15 20 14.5523 20 14C20 13.4477 19.5523 13 19 13V15ZM15 9C14.4477 9 14 9.44771 14 10C14 10.5523 14.4477 11 15 11V9ZM19 11C19.5523 11 20 10.5523 20 10C20 9.44771 19.5523 9 19 9V11ZM15 17C14.4477 17 14 17.4477 14 18C14 18.5523 14.4477 19 15 19V17ZM19 19C19.5523 19 20 18.5523 20 18C20 17.4477 19.5523 17 19 17V19ZM5.54601 9.89101L6 9L5.54601 9.89101ZM5.10899 9.45399L6 9L5.10899 9.45399ZM10.891 9.45399L10 9L10.891 9.45399ZM10.454 9.89101L10 9L10.454 9.89101ZM10.454 5.10899L10 6L10.454 5.10899ZM10.891 5.54601L10 6L10.891 5.54601ZM5.54601 5.10899L6 6L5.54601 5.10899ZM5.10899 5.54601L6 6L5.10899 5.54601ZM5.54601 18.891L6 18L5.54601 18.891ZM5.10899 18.454L6 18L5.10899 18.454ZM10.891 18.454L10 18L10.891 18.454ZM10.454 18.891L10 18L10.454 18.891ZM10.454 14.109L10 15L10.454 14.109ZM10.891 14.546L10 15L10.891 14.546ZM5.54601 14.109L6 15L5.54601 14.109ZM5.10899 14.546L6 15L5.10899 14.546ZM9 2H15V0H9V2ZM22 9V15H24V9H22ZM15 22H9V24H15V22ZM2 15V9H0V15H2ZM9 22C7.58337 22 6.58104 21.9992 5.79744 21.9352C5.02552 21.8721 4.55435 21.7527 4.18404 21.564L3.27606 23.346C3.9753 23.7023 4.73898 23.8554 5.63458 23.9286C6.51851 24.0008 7.61637 24 9 24V22ZM0 15C0 16.3836 -0.000777721 17.4815 0.071442 18.3654C0.144616 19.261 0.297677 20.0247 0.653961 20.7239L2.43597 19.816C2.24729 19.4457 2.12787 18.9745 2.0648 18.2026C2.00078 17.419 2 16.4166 2 15H0ZM4.18404 21.564C3.43139 21.1805 2.81947 20.5686 2.43597 19.816L0.653961 20.7239C1.2292 21.8529 2.14708 22.7708 3.27606 23.346L4.18404 21.564ZM22 15C22 16.4166 21.9992 17.419 21.9352 18.2026C21.8721 18.9745 21.7527 19.4457 21.564 19.816L23.346 20.7239C23.7023 20.0247 23.8554 19.261 23.9286 18.3654C24.0008 17.4815 24 16.3836 24 15H22ZM15 24C16.3836 24 17.4815 24.0008 18.3654 23.9286C19.261 23.8554 20.0247 23.7023 20.7239 23.346L19.816 21.564C19.4457 21.7527 18.9745 21.8721 18.2026 21.9352C17.419 21.9992 16.4166 22 15 22V24ZM21.564 19.816C21.1805 20.5686 20.5686 21.1805 19.816 21.564L20.7239 23.346C21.8529 22.7708 22.7708 21.8529 23.346 20.7239L21.564 19.816ZM15 2C16.4166 2 17.419 2.00078 18.2026 2.0648C18.9745 2.12787 19.4457 2.24729 19.816 2.43597L20.7239 0.653961C20.0247 0.297677 19.261 0.144616 18.3654 0.071442C17.4815 -0.000777721 16.3836 0 15 0V2ZM24 9C24 7.61637 24.0008 6.51851 23.9286 5.63458C23.8554 4.73898 23.7023 3.9753 23.346 3.27606L21.564 4.18404C21.7527 4.55435 21.8721 5.02552 21.9352 5.79744C21.9992 6.58104 22 7.58337 22 9H24ZM19.816 2.43597C20.5686 2.81947 21.1805 3.43139 21.564 4.18404L23.346 3.27606C22.7708 2.14708 21.8529 1.2292 20.7239 0.653961L19.816 2.43597ZM9 0C7.61637 0 6.51851 -0.000777721 5.63458 0.071442C4.73898 0.144616 3.9753 0.297677 3.27606 0.653961L4.18404 2.43597C4.55435 2.24729 5.02552 2.12787 5.79744 2.0648C6.58104 2.00078 7.58337 2 9 2V0ZM2 9C2 7.58337 2.00078 6.58104 2.0648 5.79744C2.12787 5.02552 2.24729 4.55435 2.43597 4.18404L0.653961 3.27606C0.297677 3.9753 0.144616 4.73898 0.071442 5.63458C-0.000777721 6.51851 0 7.61637 0 9H2ZM3.27606 0.653961C2.14708 1.2292 1.2292 2.14708 0.653961 3.27606L2.43597 4.18404C2.81947 3.43139 3.43139 2.81947 4.18404 2.43597L3.27606 0.653961ZM15 7L19 7V5L15 5V7ZM15 15H19V13H15V15ZM15 11H19V9H15V11ZM15 19H19V17H15V19ZM6.6 6H9.4V4H6.6V6ZM10 6.6V8.4H12V6.6H10ZM9.4 9H6.6V11H9.4V9ZM6 8.4V6.6H4V8.4H6ZM6.6 9C6.30347 9 6.14122 8.99922 6.02463 8.9897C5.91972 8.98113 5.94249 8.9707 6 9L5.09202 10.782C5.36344 10.9203 5.63318 10.9644 5.86177 10.9831C6.07869 11.0008 6.33647 11 6.6 11V9ZM4 8.4C4 8.66353 3.99922 8.92131 4.01695 9.13823C4.03562 9.36682 4.07969 9.63656 4.21799 9.90798L6 9C6.0293 9.05751 6.01887 9.08028 6.0103 8.97537C6.00078 8.85878 6 8.69653 6 8.4H4ZM6 9L4.21799 9.90798C4.40973 10.2843 4.7157 10.5903 5.09202 10.782L6 9ZM10 8.4C10 8.69653 9.99922 8.85878 9.9897 8.97537C9.98112 9.08028 9.9707 9.05751 10 9L11.782 9.90798C11.9203 9.63656 11.9644 9.36682 11.9831 9.13823C12.0008 8.92131 12 8.66353 12 8.4H10ZM9.4 11C9.66353 11 9.92131 11.0008 10.1382 10.9831C10.3668 10.9644 10.6366 10.9203 10.908 10.782L10 9C10.0575 8.9707 10.0803 8.98113 9.97537 8.9897C9.85878 8.99922 9.69653 9 9.4 9V11ZM10 9L10.908 10.782C11.2843 10.5903 11.5903 10.2843 11.782 9.90798L10 9ZM9.4 6C9.69653 6 9.85878 6.00078 9.97537 6.0103C10.0803 6.01887 10.0575 6.0293 10 6L10.908 4.21799C10.6366 4.07969 10.3668 4.03562 10.1382 4.01695C9.92131 3.99922 9.66352 4 9.4 4V6ZM12 6.6C12 6.33647 12.0008 6.07869 11.9831 5.86177C11.9644 5.63318 11.9203 5.36344 11.782 5.09202L10 6C9.9707 5.94249 9.98112 5.91972 9.9897 6.02463C9.99922 6.14122 10 6.30347 10 6.6H12ZM10 6L11.782 5.09202C11.5903 4.7157 11.2843 4.40973 10.908 4.21799L10 6ZM6.6 4C6.33647 4 6.07869 3.99922 5.86177 4.01695C5.63318 4.03562 5.36344 4.07969 5.09202 4.21799L6 6C5.94249 6.0293 5.91972 6.01887 6.02463 6.0103C6.14122 6.00078 6.30347 6 6.6 6V4ZM6 6.6C6 6.30347 6.00078 6.14122 6.0103 6.02463C6.01887 5.91972 6.0293 5.94249 6 6L4.21799 5.09202C4.07969 5.36344 4.03562 5.63318 4.01695 5.86177C3.99922 6.07869 4 6.33647 4 6.6H6ZM5.09202 4.21799C4.71569 4.40973 4.40973 4.71569 4.21799 5.09202L6 6L5.09202 4.21799ZM6.6 15H9.4V13H6.6V15ZM10 15.6V17.4H12V15.6H10ZM9.4 18H6.6V20H9.4V18ZM6 17.4V15.6H4V17.4H6ZM6.6 18C6.30347 18 6.14122 17.9992 6.02463 17.9897C5.91972 17.9811 5.94249 17.9707 6 18L5.09202 19.782C5.36344 19.9203 5.63318 19.9644 5.86177 19.9831C6.07869 20.0008 6.33647 20 6.6 20V18ZM4 17.4C4 17.6635 3.99922 17.9213 4.01695 18.1382C4.03562 18.3668 4.07969 18.6366 4.21799 18.908L6 18C6.0293 18.0575 6.01887 18.0803 6.0103 17.9754C6.00078 17.8588 6 17.6965 6 17.4H4ZM6 18L4.21799 18.908C4.40973 19.2843 4.7157 19.5903 5.09202 19.782L6 18ZM10 17.4C10 17.6965 9.99922 17.8588 9.9897 17.9754C9.98112 18.0803 9.9707 18.0575 10 18L11.782 18.908C11.9203 18.6366 11.9644 18.3668 11.9831 18.1382C12.0008 17.9213 12 17.6635 12 17.4H10ZM9.4 20C9.66353 20 9.92131 20.0008 10.1382 19.9831C10.3668 19.9644 10.6366 19.9203 10.908 19.782L10 18C10.0575 17.9707 10.0803 17.9811 9.97537 17.9897C9.85878 17.9992 9.69653 18 9.4 18V20ZM10 18L10.908 19.782C11.2843 19.5903 11.5903 19.2843 11.782 18.908L10 18ZM9.4 15C9.69653 15 9.85878 15.0008 9.97537 15.0103C10.0803 15.0189 10.0575 15.0293 10 15L10.908 13.218C10.6366 13.0797 10.3668 13.0356 10.1382 13.0169C9.92131 12.9992 9.66352 13 9.4 13V15ZM12 15.6C12 15.3365 12.0008 15.0787 11.9831 14.8618C11.9644 14.6332 11.9203 14.3634 11.782 14.092L10 15C9.9707 14.9425 9.98112 14.9197 9.9897 15.0246C9.99922 15.1412 10 15.3035 10 15.6H12ZM10 15L11.782 14.092C11.5903 13.7157 11.2843 13.4097 10.908 13.218L10 15ZM6.6 13C6.33647 13 6.07869 12.9992 5.86177 13.0169C5.63318 13.0356 5.36344 13.0797 5.09202 13.218L6 15C5.94249 15.0293 5.91972 15.0189 6.02463 15.0103C6.14122 15.0008 6.30347 15 6.6 15V13ZM6 15.6C6 15.3035 6.00078 15.1412 6.0103 15.0246C6.01887 14.9197 6.0293 14.9425 6 15L4.21799 14.092C4.07969 14.3634 4.03562 14.6332 4.01695 14.8618C3.99922 15.0787 4 15.3365 4 15.6H6ZM5.09202 13.218C4.7157 13.4097 4.40973 13.7157 4.21799 14.092L6 15L5.09202 13.218Z" fill="#FFFFFF38"/>
</g>
<defs>
<clipPath id="clip0_1109_485">
<rect width="24" height="24" fill="white"/>
</clipPath>
</defs>
</svg>
